<svg height="512pt" viewBox="0 -22 512 512" width="512pt" xmlns="http://www.w3.org/2000/svg"><path d="m153.25 339.546875s-27.597656 34.386719-27.597656 81.300781c0 46.914063 55.195312 46.226563 55.195312 46.226563h150.304688s55.195312.6875 55.195312-46.226563c0-46.914062-27.597656-81.300781-27.597656-81.300781l-99.300781-24.945313zm0 0" fill="#e8e8e8"/><path d="m156.558594 420.847656c0-46.914062 27.597656-81.300781 27.597656-81.300781l90.226562-21.191406-14.933593-3.753907-106.199219 24.945313s-27.597656 34.386719-27.597656 81.300781c0 46.914063 55.195312 46.226563 55.195312 46.226563h30.636719c-4.074219-.023438-54.925781-1.1875-54.925781-46.226563zm0 0" fill="#d2d1d7"/><path d="m191.878906 409.597656c-4.265625 0-7.726562-3.460937-7.726562-7.726562v-11.605469c0-4.265625 3.460937-7.726563 7.726562-7.726563 4.269532 0 7.726563 3.460938 7.726563 7.726563v11.605469c0 4.265625-3.460938 7.726562-7.726563 7.726562zm0 0" fill="#333a41"/><path d="m320.121094 409.597656c-4.269532 0-7.726563-3.460937-7.726563-7.726562v-11.605469c0-4.265625 3.457031-7.726563 7.726563-7.726563 4.265625 0 7.726562 3.460938 7.726562 7.726563v11.605469c0 4.265625-3.460937 7.726562-7.726562 7.726562zm0 0" fill="#333a41"/><path d="m256 415.792969c-8.394531 0-16.285156-3.515625-21.644531-9.644531-2.808594-3.210938-2.480469-8.09375.734375-10.902344 3.210937-2.808594 8.089844-2.480469 10.902344.730468 2.421874 2.773438 6.070312 4.363282 10.007812 4.363282s7.585938-1.589844 10.007812-4.363282c2.808594-3.210937 7.691407-3.539062 10.902344-.730468 3.214844 2.808594 3.542969 7.691406.734375 10.902344-5.359375 6.128906-13.25 9.644531-21.644531 9.644531zm0 0" fill="#333a41"/><path d="m432.449219 339.449219c-1.328125.074219-2.65625.105469-4.007813.105469h-344.882812c-1.351563 0-2.679688-.03125-4.007813-.105469l-79.292969-95.023438c1.503907-33.789062 9.558594-65.878906 22.929688-95.023437l81.941406-100.238282c20.871094-15.265624 44.144532-27.433593 69.148438-35.839843h163.445312c25.003906 8.40625 48.277344 20.574219 69.148438 35.839843l81.941406 100.238282c13.371094 29.144531 21.425781 61.234375 22.929688 95.023437zm0 0" fill="#f75747"/><path d="m37.96875 289.617188c-4.53125-10.289063-7.0625-21.652344-7.0625-33.613282 0-3.882812.082031-7.734375.257812-11.578125 1.503907-33.789062 9.558594-65.878906 22.929688-95.023437 18.359375-40.042969 46.742188-74.527344 81.941406-100.238282 20.871094-15.265624 44.144532-27.433593 69.148438-35.839843 0 0-30.902344 0-30.90625 0-4.078125 1.371093-8.101563 2.851562-12.085938 4.417969-20.246094 7.976562-39.496094 18.570312-57.0625 31.421874l-81.941406 100.238282c-8.355469 18.214844-14.636719 37.578125-18.539062 57.792968-2.371094 12.277344-3.835938 24.738282-4.390626 37.230469zm0 0" fill="#e73826"/><g fill="#e8e8e8"><path d="m337.71875 13.324219c-6.367188 39.386719-40.53125 69.464843-81.71875 69.464843s-75.351562-30.078124-81.71875-69.464843c25.664062-8.640625 53.140625-13.324219 81.71875-13.324219s56.054688 4.683594 81.71875 13.324219zm0 0"/><path d="m488.8125 149.402344c-7.960938 3.296875-16.691406 5.117187-25.835938 5.117187-37.339843 0-67.613281-30.273437-67.613281-67.613281 0-13.976562 4.242188-26.96875 11.507813-37.742188 10.714844 7.824219 20.792968 16.460938 30.148437 25.816407 21.394531 21.394531 39.023438 46.5625 51.792969 74.421875zm0 0"/><path d="m116.636719 86.910156c0 37.335938-30.273438 67.609375-67.613281 67.609375-9.144532 0-17.875-1.820312-25.835938-5.117187 18.359375-40.042969 46.742188-74.523438 81.941406-100.238282 7.265625 10.777344 11.507813 23.769532 11.507813 37.746094zm0 0"/><path d="m326.738281 200.570312c0 39.070313-31.671875 70.742188-70.738281 70.742188s-70.738281-31.671875-70.738281-70.742188c0-39.066406 31.671875-70.738281 70.738281-70.738281s70.738281 31.671875 70.738281 70.738281zm0 0"/><path d="m82.941406 317.351562c0 7.707032-1.1875 15.125-3.390625 22.097657-21.488281-1.007813-40.847656-10.136719-55.074219-24.375-15.121093-15.109375-24.476562-36.003907-24.476562-59.070313 0-3.882812.0820312-7.734375.257812-11.578125 3.007813-.371093 6.078126-.566406 9.1875-.566406 40.589844 0 73.496094 32.902344 73.496094 73.492187zm0 0"/></g><path d="m81.320312 332.699219c-9.75-4.21875-18.542968-10.222657-25.9375-17.625-15.125-15.109375-24.476562-36.003907-24.476562-59.070313 0-2.984375.066406-5.949218.167969-8.90625-6.839844-2.101562-14.101563-3.238281-21.628907-3.238281-3.109374 0-6.179687.195313-9.1875.566406-.1757808 3.84375-.257812 7.695313-.257812 11.578125 0 14.886719 4.207031 30.339844 12.097656 43.320313 14.242188 23.429687 40.066406 38.835937 67.453125 40.125.695313-2.207031 1.28125-4.460938 1.769531-6.75zm0 0" fill="#d2d1d7"/><path d="m23.1875 149.402344c7.964844 3.296875 16.691406 5.117187 25.835938 5.117187.949218 0 1.890624-.03125 2.828124-.070312.730469-1.691407 1.476563-3.375 2.242188-5.046875 14.308594-31.210938 34.710938-59.046875 59.683594-81.980469-1.972656-6.558594-4.90625-12.703125-8.648438-18.257813-29.691406 21.691407-54.640625 49.804688-72.613281 81.886719-3.347656 5.972657-6.460937 12.09375-9.328125 18.351563zm0 0" fill="#d2d1d7"/><path d="m176.984375 24.738281c9.117187-4.339843 18.527344-8.160156 28.199219-11.414062 21.007812-7.070313 43.226562-11.488281 66.269531-12.859375-1.378906-.082032-11.683594-.464844-15.453125-.464844-17.492188 0-34.988281 1.769531-52.121094 5.3125-10.09375 2.089844-19.976562 4.769531-29.597656 8.011719.628906 3.902343 1.542969 7.710937 2.703125 11.414062zm0 0" fill="#d2d1d7"/><path d="m512 256.003906c0 44.785156-35.261719 81.363282-79.550781 83.445313-2.203125-6.972657-3.390625-14.390625-3.390625-22.097657 0-40.589843 32.90625-73.492187 73.496094-73.492187 3.109374 0 6.179687.195313 9.1875.566406.175781 3.84375.257812 7.695313.257812 11.578125zm0 0" fill="#e8e8e8"/></svg>